<?xml version="1.0" encoding="iso-8859-1"?>
<!-- Generator: Adobe Illustrator 19.0.0, SVG Export Plug-In . SVG Version: 6.00 Build 0)  -->
<svg version="1.1" id="Layer_1" xmlns="http://www.w3.org/2000/svg" xmlns:xlink="http://www.w3.org/1999/xlink" x="0px" y="0px"
	 viewBox="0 0 512.005 512.005" style="enable-background:new 0 0 512.005 512.005;" xml:space="preserve">
<g>
	<path style="fill:#F96232;" d="M146.522,9.308v150.533c0,28.019,10.688,56.033,32.067,77.407
		c14.715,14.717,32.576,24.366,51.412,28.964v65.147h52.001v-65.147c18.847-4.598,36.698-14.244,51.407-28.964
		c21.389-21.373,32.074-49.388,32.074-77.407V9.308H146.522z"/>
	<path style="fill:#F96232;" d="M328.236,375.163H183.775V363.29c0-8.161,3.123-16.343,9.354-22.574
		c6.239-6.231,14.405-9.354,22.577-9.354h80.596c8.161,0,16.343,3.126,22.577,9.354c6.228,6.234,9.354,14.413,9.354,22.574v11.873
		H328.236z"/>
</g>
<g>
	<path style="fill:#242D3C;" d="M291.31,340.669h-70.618v-67.382c-18.304-5.696-35.018-15.788-48.686-29.453
		c-22.441-22.431-34.793-52.26-34.793-83.994V0h237.581v159.841c0,31.736-12.362,61.565-34.803,83.994
		c-13.665,13.665-30.372,23.757-48.681,29.453V340.669z M239.309,322.053h33.385v-63.155l7.104-1.731
		c17.764-4.332,34.027-13.491,47.03-26.496c18.926-18.913,29.348-44.063,29.348-70.828V18.616H155.83v141.225
		c0,26.755,10.422,51.909,29.34,70.827c13.007,13.002,29.274,22.164,47.037,26.496l7.101,1.731L239.309,322.053L239.309,322.053z"/>
	<path style="fill:#242D3C;" d="M337.546,384.471H174.464v-21.179c0-11.013,4.291-21.371,12.081-29.158
		c7.798-7.79,18.153-12.081,29.161-12.081h80.596c11.011,0,21.366,4.291,29.161,12.081c7.79,7.795,12.083,18.145,12.083,29.158
		V384.471z M193.083,365.852h125.844v-2.563c0-6.034-2.355-11.715-6.63-15.992c-4.278-4.273-9.956-6.628-15.995-6.628h-80.596
		c-6.034,0-11.717,2.355-16,6.633c-4.268,4.27-6.623,9.948-6.623,15.987L193.083,365.852L193.083,365.852z"/>
	<path style="fill:#242D3C;" d="M365.484,169.152v-18.616c12.132,0,23.539-4.726,32.125-13.307
		c8.579-8.586,13.307-19.994,13.307-32.125V59.671h-45.432V41.055h64.051v64.049c0,17.103-6.664,33.188-18.76,45.289
		C398.669,162.493,382.587,169.152,365.484,169.152z"/>
	<path style="fill:#242D3C;" d="M146.522,169.152c-17.103,0-33.185-6.661-45.284-18.76c-12.099-12.086-18.765-28.168-18.765-45.289
		V41.055h64.049v18.616h-45.432v45.432c0,12.14,4.726,23.547,13.307,32.12c8.586,8.586,19.988,13.312,32.123,13.312v18.616H146.522z
		"/>
</g>
<polygon style="fill:#FFFFFF;" points="256.003,85.097 270.986,115.448 304.471,120.317 280.246,143.944 285.957,177.303 
	256.003,161.549 226.043,177.303 231.764,143.944 207.534,120.317 241.024,115.448 "/>
<g>
	<polygon style="fill:#242D3C;" points="367.949,512 349.327,512 349.327,384.471 162.673,384.471 162.673,512 144.056,512 
		144.056,365.852 367.949,365.852 	"/>
	<polygon style="fill:#242D3C;" points="470.589,512 451.973,512 451.973,452.882 367.949,452.882 367.949,512 349.327,512 
		349.327,434.263 470.589,434.263 	"/>
	<polygon style="fill:#242D3C;" points="162.673,512 144.056,512 144.056,452.882 60.032,452.882 60.032,512 41.416,512 
		41.416,434.263 162.673,434.263 	"/>
	<rect x="246.684" y="420.096" style="fill:#242D3C;" width="18.619" height="82.586"/>
	<rect x="235.574" y="493.389" style="fill:#242D3C;" width="40.863" height="18.616"/>
	<path style="fill:#242D3C;" d="M235.566,449.859v-18.616c6.134,0,11.128-4.992,11.128-11.133h18.614
		C265.308,436.513,251.968,449.859,235.566,449.859z"/>
</g>
<g>
</g>
<g>
</g>
<g>
</g>
<g>
</g>
<g>
</g>
<g>
</g>
<g>
</g>
<g>
</g>
<g>
</g>
<g>
</g>
<g>
</g>
<g>
</g>
<g>
</g>
<g>
</g>
<g>
</g>
</svg>
