<?xml version="1.0" encoding="iso-8859-1"?>
<!-- Generator: Adobe Illustrator 19.0.0, SVG Export Plug-In . SVG Version: 6.00 Build 0)  -->
<svg version="1.1" id="Layer_1" xmlns="http://www.w3.org/2000/svg" xmlns:xlink="http://www.w3.org/1999/xlink" x="0px" y="0px"
	 viewBox="0 0 512 512" style="enable-background:new 0 0 512 512;" xml:space="preserve">
<path style="fill:#242D3C;" d="M256.005,129.286c-30.344,0-55.035-24.701-55.035-55.058c0-30.346,24.691-55.035,55.035-55.035
	c30.341,0,55.027,24.691,55.027,55.035C311.032,104.588,286.346,129.286,256.005,129.286z M256.005,36.417
	c-20.849,0-37.811,16.963-37.811,37.814c0,20.861,16.963,37.837,37.811,37.837c20.846,0,37.804-16.973,37.804-37.837
	C293.811,53.38,276.854,36.417,256.005,36.417z"/>
<polygon style="fill:#43D3E8;" points="297.339,159.868 256.005,201.204 214.671,159.868 84.311,159.868 84.311,206.616 
	196.588,206.616 196.588,328.204 315.41,328.204 315.41,206.616 427.697,206.616 427.697,159.868 "/>
<g>
	<rect x="247.398" y="218.423" style="fill:#242D3C;" width="17.224" height="17.226"/>
	<rect x="247.398" y="252.881" style="fill:#242D3C;" width="17.224" height="17.224"/>
	<rect x="247.398" y="349.7" style="fill:#242D3C;" width="17.224" height="143.101"/>
	<path style="fill:#242D3C;" d="M324.029,492.806h-17.224V198.004h153.846c8.123,0,14.733-6.623,14.733-14.764
		c0-8.143-6.61-14.769-14.733-14.769h-409.3c-8.123,0-14.733,6.623-14.733,14.769c0,8.141,6.61,14.764,14.733,14.764h153.843
		v294.802h-17.224V215.228H51.351c-17.618,0-31.956-14.349-31.956-31.985c0-17.641,14.339-31.99,31.956-31.99h409.3
		c17.62,0,31.954,14.349,31.954,31.99c0,17.636-14.336,31.985-31.954,31.985H324.029L324.029,492.806L324.029,492.806z"/>
	<polygon style="fill:#242D3C;" points="481.19,322.244 455.7,256.552 430.213,322.244 414.154,316.013 455.7,208.941 
		497.249,316.013 	"/>
</g>
<path style="fill:#43D3E8;" d="M399.391,314.426c0,31.096,25.203,56.3,56.31,56.3c31.073,0,56.3-25.203,56.3-56.3H399.391z"/>
<polygon style="fill:#242D3C;" points="30.815,322.244 14.758,316.013 56.307,208.941 97.853,316.013 81.795,322.244 
	56.307,256.552 "/>
<path style="fill:#43D3E8;" d="M0,314.426c0,31.096,25.219,56.3,56.307,56.3c31.096,0,56.3-25.203,56.3-56.3H0z"/>
<g>
</g>
<g>
</g>
<g>
</g>
<g>
</g>
<g>
</g>
<g>
</g>
<g>
</g>
<g>
</g>
<g>
</g>
<g>
</g>
<g>
</g>
<g>
</g>
<g>
</g>
<g>
</g>
<g>
</g>
</svg>
