<?xml version="1.0" encoding="iso-8859-1"?>
<!-- Generator: Adobe Illustrator 19.0.0, SVG Export Plug-In . SVG Version: 6.00 Build 0)  -->
<svg version="1.1" id="Layer_1" xmlns="http://www.w3.org/2000/svg" xmlns:xlink="http://www.w3.org/1999/xlink" x="0px" y="0px"
	 viewBox="0 0 512 512" style="enable-background:new 0 0 512 512;" xml:space="preserve">
<path style="fill:#43D3E8;" d="M140.5,183.898l-40.635,40.635l-40.635-40.635h-0.008c-12.557,0-25.111,4.785-34.696,14.372
	c-9.582,9.587-14.369,22.134-14.369,34.696v75.489h40.635v47.913h98.135V224.532h124.557v-40.635H140.5z"/>
<g>
	<path style="fill:#242D3C;" d="M99.866,156.319c-30.249,0-54.858-24.607-54.858-54.858s24.607-54.856,54.858-54.856
		c30.241,0,54.848,24.607,54.848,54.856S130.107,156.319,99.866,156.319z M99.866,66.924c-19.046,0-34.54,15.496-34.54,34.54
		s15.493,34.54,34.54,34.54c19.041,0,34.532-15.496,34.532-34.54S118.904,66.924,99.866,66.924z"/>
	<rect x="40.635" y="308.452" style="fill:#242D3C;" width="20.319" height="200.064"/>
	<rect x="89.702" y="383.946" style="fill:#242D3C;" width="20.319" height="124.554"/>
	<path style="fill:#242D3C;" d="M159.089,508.511H138.77V214.374h162.309v-20.319H59.223c-10.399,0-20.168,4.047-27.51,11.397
		c-7.35,7.355-11.397,17.124-11.397,27.512v103.084h30.477v20.319H0V232.965c0-15.813,6.159-30.682,17.341-41.876
		c11.182-11.187,26.056-17.349,41.882-17.349h262.175v60.954H159.089V508.511z"/>
	<polygon style="fill:#242D3C;" points="492.81,405.752 190.976,405.752 190.976,385.436 472.492,385.436 472.492,146.161 
		492.81,146.161 	"/>
	<polygon style="fill:#242D3C;" points="512,156.319 190.976,156.319 190.976,136 491.681,136 491.681,117.942 190.976,117.942 
		190.976,97.626 512,97.626 	"/>
	<polygon style="fill:#242D3C;" points="373.54,114.967 290.785,32.215 208.041,114.967 193.674,100.6 290.785,3.484 387.904,100.6 
			"/>
	<rect x="280.627" y="395.594" style="fill:#242D3C;" width="20.319" height="56.704"/>
	<path style="fill:#242D3C;" d="M290.785,508.511c-18.299,0-33.183-14.889-33.183-33.188c0-18.299,14.881-33.185,33.183-33.185
		c18.296,0,33.183,14.886,33.183,33.185C323.968,493.622,309.082,508.511,290.785,508.511z M290.785,462.454
		c-7.094,0-12.864,5.773-12.864,12.867s5.77,12.869,12.864,12.869c7.094,0,12.864-5.775,12.864-12.869
		S297.879,462.454,290.785,462.454z"/>
</g>
<g>
	<rect x="190.976" y="325.322" style="fill:#F96232;" width="20.319" height="35.556"/>
	<rect x="231.117" y="289.764" style="fill:#F96232;" width="20.319" height="71.109"/>
	<rect x="271.283" y="320.765" style="fill:#F96232;" width="20.319" height="40.125"/>
	<rect x="311.424" y="274.941" style="fill:#F96232;" width="20.319" height="85.939"/>
	<rect x="351.565" y="300.439" style="fill:#F96232;" width="20.319" height="60.442"/>
	<rect x="391.706" y="254.717" style="fill:#F96232;" width="20.319" height="106.158"/>
	<rect x="431.846" y="271.997" style="fill:#F96232;" width="20.319" height="88.888"/>
</g>
<g>
	<rect x="351.078" y="173.74" style="fill:#242D3C;" width="20.319" height="20.319"/>
	<rect x="391.706" y="173.74" style="fill:#242D3C;" width="20.319" height="20.319"/>
	<rect x="432.358" y="173.74" style="fill:#242D3C;" width="20.319" height="20.319"/>
	<rect x="351.078" y="214.372" style="fill:#242D3C;" width="101.588" height="20.319"/>
</g>
<g>
</g>
<g>
</g>
<g>
</g>
<g>
</g>
<g>
</g>
<g>
</g>
<g>
</g>
<g>
</g>
<g>
</g>
<g>
</g>
<g>
</g>
<g>
</g>
<g>
</g>
<g>
</g>
<g>
</g>
</svg>
