<?xml version="1.0" encoding="iso-8859-1"?>
<!-- Generator: Adobe Illustrator 19.0.0, SVG Export Plug-In . SVG Version: 6.00 Build 0)  -->
<svg version="1.1" id="Layer_1" xmlns="http://www.w3.org/2000/svg" xmlns:xlink="http://www.w3.org/1999/xlink" x="0px" y="0px"
	 viewBox="0 0 512 512" style="enable-background:new 0 0 512 512;" xml:space="preserve">
<path style="fill:#43D3E8;" d="M337.375,162.161c-10.537-10.54-24.361-15.816-38.175-15.816l-43.197,43.2l-43.197-43.2
	c-13.821,0-27.638,5.279-38.185,15.816c-10.54,10.545-15.816,24.361-15.816,38.182v97.198h194.383v-97.198
	C353.19,186.522,347.919,172.705,337.375,162.161z"/>
<g>
	<rect x="192.461" y="245.76" style="fill:#242D3C;" width="19.108" height="51.784"/>
	<rect x="300.442" y="245.76" style="fill:#242D3C;" width="19.105" height="51.784"/>
	<path style="fill:#242D3C;" d="M256.003,119.903c-33.06,0-59.955-26.89-59.955-59.948C196.05,26.895,222.943,0,256.003,0
		c33.052,0,59.945,26.895,59.945,59.955C315.948,93.012,289.055,119.903,256.003,119.903z M256.003,19.105
		c-22.525,0-40.847,18.324-40.847,40.85c0,22.52,18.322,40.84,40.847,40.84c22.515,0,40.837-18.319,40.837-40.84
		C296.84,37.43,278.52,19.105,256.003,19.105z"/>
	<path style="fill:#242D3C;" d="M362.744,297.544h-19.108v-97.201c0-11.871-4.626-23.032-13.018-31.429
		c-8.394-8.392-19.556-13.015-31.419-13.015h-86.395c-11.868,0-23.03,4.623-31.429,13.02c-8.392,8.397-13.015,19.558-13.015,31.424
		v97.198h-19.105v-97.198c0-16.968,6.61-32.924,18.611-44.938c12.017-12.004,27.973-18.614,44.943-18.614h86.395
		c16.97,0,32.927,6.61,44.931,18.614c12.004,12.001,18.614,27.963,18.614,44.938v97.201H362.744z"/>
	<rect x="246.451" y="207.539" style="fill:#242D3C;" width="19.108" height="19.108"/>
	<rect x="246.451" y="245.76" style="fill:#242D3C;" width="19.108" height="19.108"/>
	<path style="fill:#242D3C;" d="M469.594,360.952H42.406V287.99h427.185v72.963H469.594z M61.514,341.844h388.969v-34.749H61.514
		V341.844z"/>
	<polygon style="fill:#242D3C;" points="434.58,512 415.475,512 415.475,360.952 96.527,360.952 96.527,512 77.42,512 
		77.42,341.844 434.58,341.844 	"/>
</g>
<rect x="144.077" y="400.563" style="fill:#43D3E8;" width="216.192" height="81.398"/>
<g>
	<rect x="208.23" y="431.693" style="fill:#FFFFFF;" width="19.11" height="19.108"/>
	<rect x="246.451" y="431.693" style="fill:#FFFFFF;" width="19.103" height="19.108"/>
	<rect x="284.646" y="431.693" style="fill:#FFFFFF;" width="19.108" height="19.108"/>
</g>
<g>
	<polygon style="fill:#242D3C;" points="434.58,297.544 415.475,297.544 415.475,175.782 389.453,149.737 402.967,136.236 
		434.58,167.869 	"/>
	<path style="fill:#242D3C;" d="M384.694,157.309c-14.244,0-25.836-11.579-25.836-25.818c0-14.246,11.589-25.838,25.836-25.838
		c14.246,0,25.843,11.592,25.843,25.838C410.537,145.731,398.943,157.309,384.694,157.309z M384.694,124.762
		c-3.709,0-6.73,3.018-6.73,6.73c0,3.699,3.021,6.71,6.73,6.71c3.712,0,6.735-3.011,6.735-6.71
		C391.429,127.78,388.408,124.762,384.694,124.762z"/>
</g>
<g>
</g>
<g>
</g>
<g>
</g>
<g>
</g>
<g>
</g>
<g>
</g>
<g>
</g>
<g>
</g>
<g>
</g>
<g>
</g>
<g>
</g>
<g>
</g>
<g>
</g>
<g>
</g>
<g>
</g>
</svg>
