<?xml version="1.0" encoding="iso-8859-1"?>
<!-- Generator: Adobe Illustrator 19.0.0, SVG Export Plug-In . SVG Version: 6.00 Build 0)  -->
<svg version="1.1" id="Layer_1" xmlns="http://www.w3.org/2000/svg" xmlns:xlink="http://www.w3.org/1999/xlink" x="0px" y="0px"
	 viewBox="0 0 512 512" style="enable-background:new 0 0 512 512;" xml:space="preserve">
<g>
	<path style="fill:#242D3C;" d="M88.62,190.495c-27.896,0-50.591-22.694-50.591-50.588c0-27.901,22.694-50.596,50.591-50.596
		c27.901,0,50.601,22.694,50.601,50.596C139.22,167.798,116.521,190.495,88.62,190.495z M88.62,108.58
		c-17.267,0-31.322,14.054-31.322,31.327s14.054,31.316,31.322,31.316c17.277,0,31.329-14.047,31.329-31.316
		C119.949,122.634,105.897,108.58,88.62,108.58z"/>
	<rect x="78.986" y="388.452" style="fill:#242D3C;" width="19.269" height="122.87"/>
	<path style="fill:#242D3C;" d="M54.374,511.327H35.105V374.689H0V262.659c0-14.29,5.565-27.73,15.672-37.839
		c10.109-10.109,23.549-15.68,37.844-15.68h75.553v19.272H53.517c-9.149,0-17.746,3.564-24.212,10.033
		c-6.472,6.469-10.033,15.071-10.033,24.215v92.759h35.103V511.327z"/>
	<rect x="78.986" y="245.757" style="fill:#242D3C;" width="19.269" height="19.277"/>
	<polygon style="fill:#242D3C;" points="142.139,511.327 122.87,511.327 122.87,355.42 167.608,355.42 167.608,374.689 
		142.139,374.689 	"/>
	<path style="fill:#242D3C;" d="M423.375,190.495c-27.894,0-50.591-22.694-50.591-50.588c0-27.901,22.694-50.596,50.591-50.596
		c27.896,0,50.598,22.694,50.598,50.596C473.974,167.798,451.272,190.495,423.375,190.495z M423.375,108.58
		c-17.27,0-31.319,14.054-31.319,31.327s14.049,31.316,31.319,31.316c17.272,0,31.327-14.047,31.327-31.316
		C454.702,122.634,440.648,108.58,423.375,108.58z"/>
	<rect x="413.747" y="388.452" style="fill:#242D3C;" width="19.269" height="122.87"/>
	<path style="fill:#242D3C;" d="M476.895,511.327h-19.269V355.42h35.105v-92.759c0-9.147-3.566-17.746-10.03-24.215
		c-6.469-6.469-15.068-10.033-24.215-10.033H382.93v-19.272h75.556c14.298,0,27.732,5.571,37.842,15.68
		C506.432,234.929,512,248.369,512,262.661v112.031h-35.105V511.327z"/>
	<rect x="413.747" y="245.757" style="fill:#242D3C;" width="19.269" height="19.277"/>
	<polygon style="fill:#242D3C;" points="389.13,511.327 369.861,511.327 369.861,374.689 344.389,374.689 344.389,355.42 
		389.13,355.42 	"/>
</g>
<path style="fill:#43D3E8;" d="M338.076,164.216c-10.632-10.632-24.571-15.951-38.508-15.951L256,191.834l-43.569-43.569
	c-13.937,0-27.873,5.32-38.508,15.951c-10.632,10.637-15.951,24.568-15.951,38.51v98.028h43.566v38.124h108.92v-38.124h43.566
	v-98.028C354.025,188.785,348.708,174.853,338.076,164.216z"/>
<g>
	<path style="fill:#242D3C;" d="M256,121.595c-33.339,0-60.465-27.121-60.465-60.465S222.661,0.668,256,0.668
		s60.465,27.121,60.465,60.465S289.339,121.595,256,121.595z M256,19.937c-22.715,0-41.193,18.481-41.193,41.193
		s18.478,41.196,41.193,41.196s41.195-18.481,41.195-41.193S278.715,19.937,256,19.937z"/>
	<rect x="246.374" y="358.833" style="fill:#242D3C;" width="19.269" height="152.474"/>
	<rect x="191.903" y="300.746" style="fill:#242D3C;" width="19.269" height="210.586"/>
	<rect x="300.826" y="300.746" style="fill:#242D3C;" width="19.269" height="210.586"/>
	<path style="fill:#242D3C;" d="M363.661,339.433h-53.199v-19.272h33.93V202.726c0-11.968-4.662-23.229-13.13-31.698
		c-8.466-8.463-19.72-13.128-31.693-13.128h-87.137c-11.973,0-23.229,4.664-31.693,13.128c-8.466,8.468-13.128,19.73-13.128,31.698
		v117.435h33.93v19.272h-53.202V202.726c0-17.119,6.666-33.211,18.77-45.322c12.106-12.106,28.206-18.772,45.322-18.772h87.137
		c17.119,0,33.216,6.669,45.32,18.772c12.106,12.111,18.772,28.206,18.772,45.322V339.433z"/>
	<rect x="246.374" y="209.994" style="fill:#242D3C;" width="19.269" height="19.274"/>
	<rect x="246.374" y="248.522" style="fill:#242D3C;" width="19.269" height="19.272"/>
</g>
<g>
</g>
<g>
</g>
<g>
</g>
<g>
</g>
<g>
</g>
<g>
</g>
<g>
</g>
<g>
</g>
<g>
</g>
<g>
</g>
<g>
</g>
<g>
</g>
<g>
</g>
<g>
</g>
<g>
</g>
</svg>
