<?xml version="1.0" encoding="iso-8859-1"?>
<!-- Generator: Adobe Illustrator 19.0.0, SVG Export Plug-In . SVG Version: 6.00 Build 0)  -->
<svg version="1.1" id="Layer_1" xmlns="http://www.w3.org/2000/svg" xmlns:xlink="http://www.w3.org/1999/xlink" x="0px" y="0px"
	 viewBox="0 0 512 512" style="enable-background:new 0 0 512 512;" xml:space="preserve">
<path style="fill:#43D3E8;" d="M366.166,196.288c-26.998,0.003-48.899-21.888-48.899-48.896c0.005-27,21.921-48.901,48.906-48.901
	c26.993,0,48.893,21.885,48.883,48.893C415.062,174.377,393.153,196.288,366.166,196.288z"/>
<g>
	<path style="fill:#242D3C;" d="M292.847,234.122l-6.702-6.705c-28.897-28.897-39.974-71.301-28.908-110.664l18.253,5.133
		c-8.351,29.701-1.556,61.478,17.695,85.076L425.752,74.386c-23.59-19.249-55.352-26.051-85.028-17.731L335.607,38.4
		c39.34-11.023,81.718,0.067,110.595,28.948l6.707,6.702L292.847,234.122z"/>
	<path style="fill:#242D3C;" d="M266.282,132.808l-30.364-30.369c-22.938-23.585-22.646-61.571,0.556-84.772
		C247.873,6.275,263.008,0,279.1,0c16.097,0,31.229,6.275,42.627,17.667l29.868,29.857L266.282,132.808z M279.1,18.962
		c-11.028,0-21.407,4.303-29.222,12.114c-15.91,15.908-16.118,41.948-0.458,58.045l16.868,16.87l58.486-58.47L308.32,31.073
		C300.509,23.263,290.131,18.962,279.1,18.962z"/>
	
		<rect x="365.69" y="395.323" transform="matrix(-0.7072 -0.707 0.707 -0.7072 352.518 960.6191)" style="fill:#242D3C;" width="18.959" height="23.984"/>
	<path style="fill:#242D3C;" d="M412.809,512H147.053v-9.482c0-73.257,59.612-132.856,132.882-132.856
		c73.265,0,132.872,59.599,132.872,132.856V512H412.809z M166.406,493.038h227.052c-4.838-58.383-53.906-104.415-113.523-104.415
		S171.245,434.655,166.406,493.038z"/>
	<path style="fill:#242D3C;" d="M259.314,421.553l-4.733-18.363c8.202-2.115,16.73-3.187,25.352-3.187v18.965
		C272.905,418.967,265.97,419.837,259.314,421.553z"/>
	<path style="fill:#242D3C;" d="M200.9,475.284l-17.915-6.216c9.518-27.423,30.29-49.638,56.988-60.956l7.401,17.459
		C225.599,434.803,208.657,452.923,200.9,475.284z"/>
	<path style="fill:#242D3C;" d="M95.725,283.715c-22.08,0-40.049-17.971-40.049-40.059c0-22.075,17.969-40.028,40.049-40.028
		c22.075,0,40.033,17.956,40.033,40.028C135.758,265.746,117.8,283.715,95.725,283.715z M95.725,222.589
		c-11.628,0-21.084,9.452-21.084,21.066c0,11.633,9.459,21.097,21.084,21.097c11.62,0,21.069-9.464,21.069-21.097
		C116.796,232.041,107.345,222.589,95.725,222.589z"/>
	
		<rect x="170.757" y="70.191" transform="matrix(-0.7073 -0.7069 0.7069 -0.7073 195.2129 399.1528)" style="fill:#242D3C;" width="18.967" height="177.944"/>
	
		<rect x="92.27" y="316.318" transform="matrix(-0.7071 -0.7071 0.7071 -0.7071 73.2479 681.939)" style="fill:#242D3C;" width="171.175" height="18.962"/>
	<rect x="356.684" y="209.536" style="fill:#242D3C;" width="18.962" height="28.014"/>
	
		<rect x="390.216" y="203.877" transform="matrix(-0.4995 -0.8663 0.8663 -0.4995 421.3137 670.1193)" style="fill:#242D3C;" width="28.029" height="18.959"/>
	
		<rect x="418.097" y="175.977" transform="matrix(-0.8661 -0.4998 0.4998 -0.8661 713.6695 562.0611)" style="fill:#242D3C;" width="28.016" height="18.961"/>
	<rect x="428.312" y="137.912" style="fill:#242D3C;" width="28.012" height="18.962"/>
</g>
<g>
</g>
<g>
</g>
<g>
</g>
<g>
</g>
<g>
</g>
<g>
</g>
<g>
</g>
<g>
</g>
<g>
</g>
<g>
</g>
<g>
</g>
<g>
</g>
<g>
</g>
<g>
</g>
<g>
</g>
</svg>
